<?xml version="1.0" standalone="no"?>
<!DOCTYPE svg PUBLIC "-//W3C//DTD SVG 20010904//EN"
 "http://www.w3.org/TR/2001/REC-SVG-20010904/DTD/svg10.dtd">
<svg version="1.0" xmlns="http://www.w3.org/2000/svg"
 width="222.000000pt" height="222.000000pt" viewBox="0 0 222.000000 222.000000"
 preserveAspectRatio="xMidYMid meet">
<metadata>
Created by potrace 1.14, written by Peter Selinger 2001-2017
</metadata>
<g transform="translate(0.000000,222.000000) scale(0.100000,-0.100000)"
fill="#000000" stroke="none">
<path d="M1125 2129 c-60 -23 -86 -47 -116 -109 -20 -42 -29 -49 -54 -51 -16
-1 -34 0 -40 1 -27 8 -102 -3 -135 -20 -42 -21 -50 -36 -50 -85 0 -19 -4 -44
-9 -57 -5 -13 -18 -46 -30 -74 -24 -60 -32 -137 -19 -175 9 -27 77 -96 90 -92
6 2 22 -45 33 -97 2 -8 24 -98 50 -200 40 -157 68 -272 89 -365 3 -11 12 -47
20 -80 25 -98 127 -507 136 -545 4 -19 11 -49 15 -67 14 -62 33 -48 61 45 31
104 33 114 35 127 1 6 6 21 11 35 6 14 18 54 28 90 10 36 52 182 94 325 42
143 78 267 80 275 2 8 23 78 45 155 23 77 44 147 46 155 2 8 16 58 31 110 15
52 27 100 27 105 0 52 -16 171 -25 193 -17 38 -57 92 -93 124 -21 19 -30 36
-30 61 -1 19 -11 55 -23 80 -37 78 -87 119 -170 141 -43 12 -54 11 -97 -5z"/>
</g>
</svg>
