<svg width="30" height="30" viewBox="0 0 30 30" fill="none" xmlns="http://www.w3.org/2000/svg">
<path d="M15 14.5312C16.9891 14.5312 18.8968 13.7658 20.3033 12.4032C21.7098 11.0406 22.5 9.19259 22.5 7.26562C22.5 5.33866 21.7098 3.49062 20.3033 2.12805C18.8968 0.765483 16.9891 0 15 0C13.0109 0 11.1032 0.765483 9.6967 2.12805C8.29018 3.49062 7.5 5.33866 7.5 7.26562C7.5 9.19259 8.29018 11.0406 9.6967 12.4032C11.1032 13.7658 13.0109 14.5312 15 14.5312ZM20 7.26562C20 8.55027 19.4732 9.78229 18.5355 10.6907C17.5979 11.5991 16.3261 12.1094 15 12.1094C13.6739 12.1094 12.4021 11.5991 11.4645 10.6907C10.5268 9.78229 10 8.55027 10 7.26562C10 5.98098 10.5268 4.74896 11.4645 3.84058C12.4021 2.9322 13.6739 2.42188 15 2.42188C16.3261 2.42188 17.5979 2.9322 18.5355 3.84058C19.4732 4.74896 20 5.98098 20 7.26562ZM30 26.6406C30 29.0625 27.5 29.0625 27.5 29.0625H2.5C2.5 29.0625 0 29.0625 0 26.6406C0 24.2188 2.5 16.9531 15 16.9531C27.5 16.9531 30 24.2188 30 26.6406ZM27.5 26.6309C27.4975 26.0352 27.115 24.243 25.42 22.6009C23.79 21.0219 20.7225 19.375 15 19.375C9.275 19.375 6.21 21.0219 4.58 22.6009C2.885 24.243 2.505 26.0352 2.5 26.6309H27.5Z" fill="#941028"/>
</svg>
