<svg width="30" height="30" viewBox="0 0 30 30" fill="none" xmlns="http://www.w3.org/2000/svg">
<path d="M10.7944 0.142246C10.9 0.209728 10.9922 0.29875 11.0656 0.404227C11.1389 0.509705 11.1921 0.629571 11.2221 0.756978C11.252 0.884385 11.2582 1.01684 11.2401 1.14677C11.2221 1.2767 11.1802 1.40157 11.1169 1.51423L6.34312 10.0002H23.6569L18.8812 1.51423C18.7534 1.28668 18.7156 1.01429 18.7761 0.756996C18.8366 0.499698 18.9904 0.278566 19.2037 0.142246C19.4171 0.00592556 19.6724 -0.0344158 19.9137 0.0300962C20.1549 0.0946082 20.3622 0.258689 20.49 0.486243L25.8431 10.0002H29.0625C29.3111 10.0002 29.5496 10.1055 29.7254 10.2931C29.9012 10.4806 30 10.7349 30 11.0002V13.0001C30 13.2654 29.9012 13.5197 29.7254 13.7072C29.5496 13.8948 29.3111 14.0001 29.0625 14.0001H0.9375C0.68886 14.0001 0.450403 13.8948 0.274587 13.7072C0.0987721 13.5197 0 13.2654 0 13.0001V11.0002C0 10.7349 0.0987721 10.4806 0.274587 10.2931C0.450403 10.1055 0.68886 10.0002 0.9375 10.0002H4.15688L9.50625 0.486243C9.56952 0.373552 9.65297 0.275259 9.75186 0.19698C9.85075 0.118701 9.96312 0.0619684 10.0826 0.0300237C10.202 -0.00192098 10.3262 -0.00845203 10.448 0.0108033C10.5698 0.0300586 10.6869 0.0747231 10.7925 0.142246H10.7944ZM6.36375 28L3.58875 16.0001H1.77L4.62937 28.852C4.70342 29.1792 4.87849 29.4703 5.12641 29.6785C5.37433 29.8867 5.6807 30 5.99625 30H24.0075C24.3234 30.0004 24.6302 29.8874 24.8785 29.6791C25.1268 29.4709 25.3021 29.1795 25.3763 28.852L28.23 16.0001H26.4075L23.6344 28H6.36562H6.36375Z" fill="#941028"/>
</svg>
